<svg xmlns="http://www.w3.org/2000/svg" viewBox="0 0 512 512">
  <rect width="512" height="512" rx="104" fill="#2563eb"/>
  <path d="M148 171c0-19.9 16.1-36 36-36h144c19.9 0 36 16.1 36 36v90c0 19.9-16.1 36-36 36h-55.4l-58.8 55.6c-9.7 9.2-25.8 2.3-25.8-11.1V297h-4c-17.7 0-32-14.3-32-32v-94z" fill="#fff"/>
  <path d="M183 181h146v24H183v-24zm0 54h101v24H183v-24z" fill="#2563eb"/>
  <circle cx="345" cy="337" r="35" fill="#c7d2fe"/>
  <path d="M331 337h28m-14-14v28" stroke="#2563eb" stroke-width="14" stroke-linecap="round"/>
</svg>
